<svg width="40" height="40" viewBox="0 0 40 40" fill="none" xmlns="http://www.w3.org/2000/svg">
<circle cx="20" cy="20" r="20" fill="#6368D9"/>
<path d="M11.2856 21.2848H26.5328L21.8661 26.89C21.758 27.02 21.6766 27.17 21.6266 27.3315C21.5765 27.4929 21.5587 27.6626 21.5742 27.831C21.6056 28.1709 21.7707 28.4845 22.0332 28.7027C22.2957 28.9209 22.6342 29.0259 22.9742 28.9946C23.3141 28.9632 23.6277 28.7981 23.8459 28.5356L30.2739 20.822C30.3171 20.7606 30.3558 20.6962 30.3896 20.6291C30.3896 20.5649 30.4539 20.5263 30.4796 20.462C30.5379 20.3146 30.5684 20.1577 30.5696 19.9992C30.5684 19.8407 30.5379 19.6838 30.4796 19.5364C30.4796 19.4721 30.4153 19.4335 30.3896 19.3693C30.3558 19.3022 30.3171 19.2378 30.2739 19.1764L23.8459 11.4628C23.725 11.3177 23.5737 11.201 23.4026 11.121C23.2315 11.041 23.0449 10.9997 22.856 11C22.5556 10.9994 22.2645 11.104 22.0332 11.2957C21.903 11.4036 21.7954 11.5362 21.7165 11.6857C21.6377 11.8353 21.5891 11.999 21.5736 12.1674C21.558 12.3357 21.5759 12.5055 21.6261 12.667C21.6763 12.8285 21.7578 12.9785 21.8661 13.1084L26.5328 18.7136H11.2856C10.9446 18.7136 10.6176 18.849 10.3765 19.0901C10.1354 19.3312 10 19.6582 10 19.9992C10 20.3402 10.1354 20.6672 10.3765 20.9083C10.6176 21.1493 10.9446 21.2848 11.2856 21.2848Z" fill="#EFEBFB"/>
</svg>
